<?xml version="1.0" encoding="UTF-8" standalone="no"?><!-- Generator: Gravit.io --><svg xmlns="http://www.w3.org/2000/svg" xmlns:xlink="http://www.w3.org/1999/xlink" style="isolation:isolate" viewBox="0 0 64 64" width="64pt" height="64pt"><defs><clipPath id="_clipPath_BtJFZGL65xqX20yVySW1PMJ6SeR9T59X"><rect width="64" height="64"/></clipPath></defs><g clip-path="url(#_clipPath_BtJFZGL65xqX20yVySW1PMJ6SeR9T59X)"><circle vector-effect="non-scaling-stroke" cx="32.00609665440984" cy="31.003048327204926" r="26" fill="rgb(255,255,255)"/><g><rect x="18.922" y="22.419" width="26.167" height="26.167" transform="matrix(0.707,-0.707,0.707,0.707,-15.73,33.03)" fill="rgb(0,0,0)"/><g><rect x="24.305" y="12.375" width="9" height="3.897" transform="matrix(0.917,0.399,-0.399,0.917,8.119,-10.313)" fill="rgb(0,0,0)"/><rect x="27.916" y="10.955" width="9" height="3.897" transform="matrix(-0.399,0.917,-0.917,-0.399,57.194,-11.66)" fill="rgb(0,0,0)"/></g></g><g><circle vector-effect="non-scaling-stroke" cx="23" cy="26.000000000000004" r="7.999999999999999" fill="rgb(255,255,255)"/><circle vector-effect="non-scaling-stroke" cx="23.5" cy="32" r="3.5" fill="rgb(255,255,255)"/><circle vector-effect="non-scaling-stroke" cx="28.506096654409838" cy="26.5" r="3.4999999999999982" fill="rgb(255,255,255)"/><circle vector-effect="non-scaling-stroke" cx="27.000000000000004" cy="30" r="3.5" fill="rgb(255,255,255)"/><circle vector-effect="non-scaling-stroke" cx="20.5" cy="31.00304832720493" r="3.5" fill="rgb(255,255,255)"/></g><g><circle vector-effect="non-scaling-stroke" cx="23" cy="26.000000000000004" r="7.999999999999999" fill="rgb(255,255,255)"/><circle vector-effect="non-scaling-stroke" cx="23.5" cy="32" r="3.5" fill="rgb(255,255,255)"/><circle vector-effect="non-scaling-stroke" cx="28.506096654409838" cy="26.5" r="3.4999999999999982" fill="rgb(255,255,255)"/><circle vector-effect="non-scaling-stroke" cx="27.000000000000004" cy="30" r="3.5" fill="rgb(255,255,255)"/><circle vector-effect="non-scaling-stroke" cx="20.5" cy="31.00304832720493" r="3.5" fill="rgb(255,255,255)"/></g></g></svg>